<svg xmlns="http://www.w3.org/2000/svg" width="320" height="176" viewBox="0 0 320 176">
<rect width="320" height="176" fill="#e8f4f4"/>
<text x="16" y="22" font-family="ui-monospace, monospace" font-size="12" fill="#243535">Street Fighter II - Dee Jay Light</text>
<rect x="16" y="36" width="48" height="40" fill="#e8f4f4"/><text x="40" y="88" text-anchor="middle" font-size="7" fill="#243535">background</text>
<rect x="68" y="36" width="48" height="40" fill="#243535"/><text x="92" y="88" text-anchor="middle" font-size="7" fill="#243535">foreground</text>
<rect x="120" y="36" width="48" height="40" fill="#975404"/><text x="144" y="88" text-anchor="middle" font-size="7" fill="#243535">accent</text>
<rect x="172" y="36" width="48" height="40" fill="#eeceb5"/><text x="196" y="88" text-anchor="middle" font-size="7" fill="#243535">active row</text>
<rect x="224" y="36" width="48" height="40" fill="#ccdede"/><text x="248" y="88" text-anchor="middle" font-size="7" fill="#243535">navigate</text>
<rect x="276" y="36" width="48" height="40" fill="#eeceb5"/><text x="300" y="88" text-anchor="middle" font-size="7" fill="#243535">selection</text>
<rect x="16" y="92" width="32" height="32" fill="#2e4141"/>
<rect x="52" y="92" width="32" height="32" fill="#a94c42"/>
<rect x="88" y="92" width="32" height="32" fill="#2e7734"/>
<rect x="124" y="92" width="32" height="32" fill="#886205"/>
<rect x="160" y="92" width="32" height="32" fill="#096ea7"/>
<rect x="196" y="92" width="32" height="32" fill="#9c4d84"/>
<rect x="232" y="92" width="32" height="32" fill="#057573"/>
<rect x="268" y="92" width="32" height="32" fill="#d3e1e1"/>
<rect x="16" y="128" width="32" height="32" fill="#425a5a"/>
<rect x="52" y="128" width="32" height="32" fill="#9c352c"/>
<rect x="88" y="128" width="32" height="32" fill="#026719"/>
<rect x="124" y="128" width="32" height="32" fill="#725306"/>
<rect x="160" y="128" width="32" height="32" fill="#0a5d8d"/>
<rect x="196" y="128" width="32" height="32" fill="#8e3776"/>
<rect x="232" y="128" width="32" height="32" fill="#066360"/>
<rect x="268" y="128" width="32" height="32" fill="#eff6f6"/>
</svg>
