<svg xmlns="http://www.w3.org/2000/svg" width="320" height="176" viewBox="0 0 320 176">
<rect width="320" height="176" fill="#faeeec"/>
<text x="16" y="22" font-family="ui-monospace, monospace" font-size="12" fill="#3c2e2b">Street Fighter II - E. Honda Light</text>
<rect x="16" y="36" width="48" height="40" fill="#faeeec"/><text x="40" y="88" text-anchor="middle" font-size="7" fill="#3c2e2b">background</text>
<rect x="68" y="36" width="48" height="40" fill="#3c2e2b"/><text x="92" y="88" text-anchor="middle" font-size="7" fill="#3c2e2b">foreground</text>
<rect x="120" y="36" width="48" height="40" fill="#ad3f3c"/><text x="144" y="88" text-anchor="middle" font-size="7" fill="#3c2e2b">accent</text>
<rect x="172" y="36" width="48" height="40" fill="#f4c9c4"/><text x="196" y="88" text-anchor="middle" font-size="7" fill="#3c2e2b">active row</text>
<rect x="224" y="36" width="48" height="40" fill="#e7d6d2"/><text x="248" y="88" text-anchor="middle" font-size="7" fill="#3c2e2b">navigate</text>
<rect x="276" y="36" width="48" height="40" fill="#f4c9c4"/><text x="300" y="88" text-anchor="middle" font-size="7" fill="#3c2e2b">selection</text>
<rect x="16" y="92" width="32" height="32" fill="#4b3936"/>
<rect x="52" y="92" width="32" height="32" fill="#a94a46"/>
<rect x="88" y="92" width="32" height="32" fill="#2d7633"/>
<rect x="124" y="92" width="32" height="32" fill="#846301"/>
<rect x="160" y="92" width="32" height="32" fill="#3c67b0"/>
<rect x="196" y="92" width="32" height="32" fill="#974e89"/>
<rect x="232" y="92" width="32" height="32" fill="#01737d"/>
<rect x="268" y="92" width="32" height="32" fill="#e8dbd8"/>
<rect x="16" y="128" width="32" height="32" fill="#66504d"/>
<rect x="52" y="128" width="32" height="32" fill="#9c3332"/>
<rect x="88" y="128" width="32" height="32" fill="#006618"/>
<rect x="124" y="128" width="32" height="32" fill="#705304"/>
<rect x="160" y="128" width="32" height="32" fill="#2555a6"/>
<rect x="196" y="128" width="32" height="32" fill="#8a387c"/>
<rect x="232" y="128" width="32" height="32" fill="#04616a"/>
<rect x="268" y="128" width="32" height="32" fill="#faf3f1"/>
</svg>
