<svg xmlns="http://www.w3.org/2000/svg" width="320" height="176" viewBox="0 0 320 176">
<rect width="320" height="176" fill="#221614"/>
<text x="16" y="22" font-family="ui-monospace, monospace" font-size="12" fill="#decdc9">Street Fighter II - E. Honda</text>
<rect x="16" y="36" width="48" height="40" fill="#221614"/><text x="40" y="88" text-anchor="middle" font-size="7" fill="#decdc9">background</text>
<rect x="68" y="36" width="48" height="40" fill="#decdc9"/><text x="92" y="88" text-anchor="middle" font-size="7" fill="#decdc9">foreground</text>
<rect x="120" y="36" width="48" height="40" fill="#db6962"/><text x="144" y="88" text-anchor="middle" font-size="7" fill="#decdc9">accent</text>
<rect x="172" y="36" width="48" height="40" fill="#522d2b"/><text x="196" y="88" text-anchor="middle" font-size="7" fill="#decdc9">active row</text>
<rect x="224" y="36" width="48" height="40" fill="#3e2e2b"/><text x="248" y="88" text-anchor="middle" font-size="7" fill="#decdc9">navigate</text>
<rect x="276" y="36" width="48" height="40" fill="#522d2b"/><text x="300" y="88" text-anchor="middle" font-size="7" fill="#decdc9">selection</text>
<rect x="16" y="92" width="32" height="32" fill="#3d2d2a"/>
<rect x="52" y="92" width="32" height="32" fill="#c76e67"/>
<rect x="88" y="92" width="32" height="32" fill="#549657"/>
<rect x="124" y="92" width="32" height="32" fill="#a88225"/>
<rect x="160" y="92" width="32" height="32" fill="#5e88cd"/>
<rect x="196" y="92" width="32" height="32" fill="#b670a7"/>
<rect x="232" y="92" width="32" height="32" fill="#1396a1"/>
<rect x="268" y="92" width="32" height="32" fill="#c1b1ad"/>
<rect x="16" y="128" width="32" height="32" fill="#967f7a"/>
<rect x="52" y="128" width="32" height="32" fill="#ee847d"/>
<rect x="88" y="128" width="32" height="32" fill="#67b36a"/>
<rect x="124" y="128" width="32" height="32" fill="#c89c30"/>
<rect x="160" y="128" width="32" height="32" fill="#72a3f3"/>
<rect x="196" y="128" width="32" height="32" fill="#d987c7"/>
<rect x="232" y="128" width="32" height="32" fill="#1db3c0"/>
<rect x="268" y="128" width="32" height="32" fill="#e5d8d5"/>
</svg>
