<svg xmlns="http://www.w3.org/2000/svg" width="320" height="176" viewBox="0 0 320 176">
<rect width="320" height="176" fill="#12100e"/>
<text x="16" y="22" font-family="ui-monospace, monospace" font-size="12" fill="#fff4d6">Street Fighter II - Fei Long</text>
<rect x="16" y="36" width="48" height="40" fill="#12100e"/><text x="40" y="88" text-anchor="middle" font-size="7" fill="#fff4d6">background</text>
<rect x="68" y="36" width="48" height="40" fill="#fff4d6"/><text x="92" y="88" text-anchor="middle" font-size="7" fill="#fff4d6">foreground</text>
<rect x="120" y="36" width="48" height="40" fill="#d62939"/><text x="144" y="88" text-anchor="middle" font-size="7" fill="#fff4d6">accent</text>
<rect x="172" y="36" width="48" height="40" fill="#1c4240"/><text x="196" y="88" text-anchor="middle" font-size="7" fill="#fff4d6">active row</text>
<rect x="224" y="36" width="48" height="40" fill="#433316"/><text x="248" y="88" text-anchor="middle" font-size="7" fill="#fff4d6">navigate</text>
<rect x="276" y="36" width="48" height="40" fill="#f2b134"/><text x="300" y="88" text-anchor="middle" font-size="7" fill="#fff4d6">selection</text>
<rect x="16" y="92" width="32" height="32" fill="#12100e"/>
<rect x="52" y="92" width="32" height="32" fill="#e8565f"/>
<rect x="88" y="92" width="32" height="32" fill="#6ecb78"/>
<rect x="124" y="92" width="32" height="32" fill="#f2b134"/>
<rect x="160" y="92" width="32" height="32" fill="#4aa5ff"/>
<rect x="196" y="92" width="32" height="32" fill="#c783d9"/>
<rect x="232" y="92" width="32" height="32" fill="#35c4c2"/>
<rect x="268" y="92" width="32" height="32" fill="#e3d9be"/>
<rect x="16" y="128" width="32" height="32" fill="#6c675a"/>
<rect x="52" y="128" width="32" height="32" fill="#ec747c"/>
<rect x="88" y="128" width="32" height="32" fill="#88d490"/>
<rect x="124" y="128" width="32" height="32" fill="#f4bf59"/>
<rect x="160" y="128" width="32" height="32" fill="#6bb5ff"/>
<rect x="196" y="128" width="32" height="32" fill="#d199e0"/>
<rect x="232" y="128" width="32" height="32" fill="#59cfcd"/>
<rect x="268" y="128" width="32" height="32" fill="#fffaf0"/>
</svg>
