<svg xmlns="http://www.w3.org/2000/svg" width="320" height="176" viewBox="0 0 320 176">
<rect width="320" height="176" fill="#f3eff8"/>
<text x="16" y="22" font-family="ui-monospace, monospace" font-size="12" fill="#352f3b">Street Fighter II - M. Bison Light</text>
<rect x="16" y="36" width="48" height="40" fill="#f3eff8"/><text x="40" y="88" text-anchor="middle" font-size="7" fill="#352f3b">background</text>
<rect x="68" y="36" width="48" height="40" fill="#352f3b"/><text x="92" y="88" text-anchor="middle" font-size="7" fill="#352f3b">foreground</text>
<rect x="120" y="36" width="48" height="40" fill="#8c48a1"/><text x="144" y="88" text-anchor="middle" font-size="7" fill="#352f3b">accent</text>
<rect x="172" y="36" width="48" height="40" fill="#e3cbeb"/><text x="196" y="88" text-anchor="middle" font-size="7" fill="#352f3b">active row</text>
<rect x="224" y="36" width="48" height="40" fill="#ddd7e5"/><text x="248" y="88" text-anchor="middle" font-size="7" fill="#352f3b">navigate</text>
<rect x="276" y="36" width="48" height="40" fill="#e3cbeb"/><text x="300" y="88" text-anchor="middle" font-size="7" fill="#352f3b">selection</text>
<rect x="16" y="92" width="32" height="32" fill="#413b49"/>
<rect x="52" y="92" width="32" height="32" fill="#a94a4b"/>
<rect x="88" y="92" width="32" height="32" fill="#247738"/>
<rect x="124" y="92" width="32" height="32" fill="#826401"/>
<rect x="160" y="92" width="32" height="32" fill="#4066b0"/>
<rect x="196" y="92" width="32" height="32" fill="#8a529b"/>
<rect x="232" y="92" width="32" height="32" fill="#01737d"/>
<rect x="268" y="92" width="32" height="32" fill="#e0dce6"/>
<rect x="16" y="128" width="32" height="32" fill="#5a5264"/>
<rect x="52" y="128" width="32" height="32" fill="#9c3237"/>
<rect x="88" y="128" width="32" height="32" fill="#016626"/>
<rect x="124" y="128" width="32" height="32" fill="#6e5403"/>
<rect x="160" y="128" width="32" height="32" fill="#2a54a6"/>
<rect x="196" y="128" width="32" height="32" fill="#7c3e8e"/>
<rect x="232" y="128" width="32" height="32" fill="#04616a"/>
<rect x="268" y="128" width="32" height="32" fill="#f6f3f9"/>
</svg>
