<svg xmlns="http://www.w3.org/2000/svg" width="320" height="176" viewBox="0 0 320 176">
<rect width="320" height="176" fill="#131927"/>
<text x="16" y="22" font-family="ui-monospace, monospace" font-size="12" fill="#cad1de">Street Fighter II - Main</text>
<rect x="16" y="36" width="48" height="40" fill="#131927"/><text x="40" y="88" text-anchor="middle" font-size="7" fill="#cad1de">background</text>
<rect x="68" y="36" width="48" height="40" fill="#cad1de"/><text x="92" y="88" text-anchor="middle" font-size="7" fill="#cad1de">foreground</text>
<rect x="120" y="36" width="48" height="40" fill="#ad8705"/><text x="144" y="88" text-anchor="middle" font-size="7" fill="#cad1de">accent</text>
<rect x="172" y="36" width="48" height="40" fill="#453714"/><text x="196" y="88" text-anchor="middle" font-size="7" fill="#cad1de">active row</text>
<rect x="224" y="36" width="48" height="40" fill="#2a3243"/><text x="248" y="88" text-anchor="middle" font-size="7" fill="#cad1de">navigate</text>
<rect x="276" y="36" width="48" height="40" fill="#453714"/><text x="300" y="88" text-anchor="middle" font-size="7" fill="#cad1de">selection</text>
<rect x="16" y="92" width="32" height="32" fill="#2b323f"/>
<rect x="52" y="92" width="32" height="32" fill="#c86e67"/>
<rect x="88" y="92" width="32" height="32" fill="#4e975b"/>
<rect x="124" y="92" width="32" height="32" fill="#a58324"/>
<rect x="160" y="92" width="32" height="32" fill="#5b89cc"/>
<rect x="196" y="92" width="32" height="32" fill="#b371ad"/>
<rect x="232" y="92" width="32" height="32" fill="#1396a1"/>
<rect x="268" y="92" width="32" height="32" fill="#aeb5c2"/>
<rect x="16" y="128" width="32" height="32" fill="#7c8597"/>
<rect x="52" y="128" width="32" height="32" fill="#ee857d"/>
<rect x="88" y="128" width="32" height="32" fill="#60b46f"/>
<rect x="124" y="128" width="32" height="32" fill="#c59e30"/>
<rect x="160" y="128" width="32" height="32" fill="#6ea4f3"/>
<rect x="196" y="128" width="32" height="32" fill="#d589cf"/>
<rect x="232" y="128" width="32" height="32" fill="#1db3c0"/>
<rect x="268" y="128" width="32" height="32" fill="#d6dbe5"/>
</svg>
