<svg xmlns="http://www.w3.org/2000/svg" width="320" height="176" viewBox="0 0 320 176">
<rect width="320" height="176" fill="#141a23"/>
<text x="16" y="22" font-family="ui-monospace, monospace" font-size="12" fill="#cad2df">Street Fighter II - Ryu</text>
<rect x="16" y="36" width="48" height="40" fill="#141a23"/><text x="40" y="88" text-anchor="middle" font-size="7" fill="#cad2df">background</text>
<rect x="68" y="36" width="48" height="40" fill="#cad2df"/><text x="92" y="88" text-anchor="middle" font-size="7" fill="#cad2df">foreground</text>
<rect x="120" y="36" width="48" height="40" fill="#da6a6a"/><text x="144" y="88" text-anchor="middle" font-size="7" fill="#cad2df">accent</text>
<rect x="172" y="36" width="48" height="40" fill="#522d2c"/><text x="196" y="88" text-anchor="middle" font-size="7" fill="#cad2df">active row</text>
<rect x="224" y="36" width="48" height="40" fill="#2b333f"/><text x="248" y="88" text-anchor="middle" font-size="7" fill="#cad2df">navigate</text>
<rect x="276" y="36" width="48" height="40" fill="#522d2c"/><text x="300" y="88" text-anchor="middle" font-size="7" fill="#cad2df">selection</text>
<rect x="16" y="92" width="32" height="32" fill="#2b323f"/>
<rect x="52" y="92" width="32" height="32" fill="#c86e6c"/>
<rect x="88" y="92" width="32" height="32" fill="#5e9465"/>
<rect x="124" y="92" width="32" height="32" fill="#9e8625"/>
<rect x="160" y="92" width="32" height="32" fill="#558acc"/>
<rect x="196" y="92" width="32" height="32" fill="#a278b5"/>
<rect x="232" y="92" width="32" height="32" fill="#1195ad"/>
<rect x="268" y="92" width="32" height="32" fill="#aeb6c2"/>
<rect x="16" y="128" width="32" height="32" fill="#7b8598"/>
<rect x="52" y="128" width="32" height="32" fill="#ee8582"/>
<rect x="88" y="128" width="32" height="32" fill="#70b27a"/>
<rect x="124" y="128" width="32" height="32" fill="#bda131"/>
<rect x="160" y="128" width="32" height="32" fill="#69a6f3"/>
<rect x="196" y="128" width="32" height="32" fill="#c291d9"/>
<rect x="232" y="128" width="32" height="32" fill="#1bb2ce"/>
<rect x="268" y="128" width="32" height="32" fill="#d6dce5"/>
</svg>
