<svg xmlns="http://www.w3.org/2000/svg" width="320" height="176" viewBox="0 0 320 176">
<rect width="320" height="176" fill="#f4eff7"/>
<text x="16" y="22" font-family="ui-monospace, monospace" font-size="12" fill="#362f3a">Street Fighter II - Vega Light</text>
<rect x="16" y="36" width="48" height="40" fill="#f4eff7"/><text x="40" y="88" text-anchor="middle" font-size="7" fill="#362f3a">background</text>
<rect x="68" y="36" width="48" height="40" fill="#362f3a"/><text x="92" y="88" text-anchor="middle" font-size="7" fill="#362f3a">foreground</text>
<rect x="120" y="36" width="48" height="40" fill="#a83b77"/><text x="144" y="88" text-anchor="middle" font-size="7" fill="#362f3a">accent</text>
<rect x="172" y="36" width="48" height="40" fill="#f0c8d9"/><text x="196" y="88" text-anchor="middle" font-size="7" fill="#362f3a">active row</text>
<rect x="224" y="36" width="48" height="40" fill="#dfd6e3"/><text x="248" y="88" text-anchor="middle" font-size="7" fill="#362f3a">navigate</text>
<rect x="276" y="36" width="48" height="40" fill="#f0c8d9"/><text x="300" y="88" text-anchor="middle" font-size="7" fill="#362f3a">selection</text>
<rect x="16" y="92" width="32" height="32" fill="#433a48"/>
<rect x="52" y="92" width="32" height="32" fill="#a84a55"/>
<rect x="88" y="92" width="32" height="32" fill="#3b7449"/>
<rect x="124" y="92" width="32" height="32" fill="#826401"/>
<rect x="160" y="92" width="32" height="32" fill="#4b64b1"/>
<rect x="196" y="92" width="32" height="32" fill="#974e89"/>
<rect x="232" y="92" width="32" height="32" fill="#01737d"/>
<rect x="268" y="92" width="32" height="32" fill="#e2dbe5"/>
<rect x="16" y="128" width="32" height="32" fill="#5d5262"/>
<rect x="52" y="128" width="32" height="32" fill="#9b3243"/>
<rect x="88" y="128" width="32" height="32" fill="#1e6434"/>
<rect x="124" y="128" width="32" height="32" fill="#6e5403"/>
<rect x="160" y="128" width="32" height="32" fill="#3952a7"/>
<rect x="196" y="128" width="32" height="32" fill="#8a387c"/>
<rect x="232" y="128" width="32" height="32" fill="#04616a"/>
<rect x="268" y="128" width="32" height="32" fill="#f6f3f8"/>
</svg>
